Genre: Action | Drama | Thriller
Language:English
IMDb:http://www.imdb.com/title/tt1214962/
Source:DvDR3 Thanks!

Format : AVI
Format/Info : Audio Video Interleave
File size : 1.26 GiB
Duration : 1h 44mn
Overall bit rate : 1 717 Kbps

Video
ID : 0
Format : MPEG-4 Visual
Format profile : Advanced Simple@L5
Format settings, BVOP : 1
Format settings, QPel : No
Format settings, GMC : No warppoints
Format settings, Matrix : Default (H.263)
Codec ID : XVID
Codec ID/Hint : XviD
Duration : 1h 44mn
Bit rate : 1 541 Kbps
Width : 640 pixels
Height : 352 pixels
Display aspect ratio : 16:9
Frame rate : 50.000 fps
Color space : YUV
Chroma subsampling : 4:2:0
Bit depth : 8 bits
Scan type : Progressive
Compression mode : Lossy
Bits/(Pixel*Frame) : 0.137
Stream size : 1.13 GiB (90%)
Writing library : XviD 1.2.1 (UTC 2008-12-04)

Audio
ID : 1
Format : AC-3
Format/Info : Audio Coding 3
Mode extension : CM (complete main)
Codec ID : 2000
Duration : 1h 44mn
Bit rate mode : Constant
Bit rate : 160 Kbps
Channel(s) : 6 channels
Channel positions : Front: L C R, Side: L R, LFE
Sampling rate : 48.0 KHz
Bit depth : 16 bits
Compression mode : Lossy
Stream size : 120 MiB (9%)
Alignment : Aligned on interleaves
Interleave, duration : 32 ms (1.60 video frames)
Interleave, preload duration : 512 ms


Plot:
After his wife is assaulted, a husband enlists the services of a vigilante group to help him settle the score.

Screen Shots

[img]http://img841.imageshack.us/img841/2136/vlcsnap2012012117h44m47.png[/img]

[img]http://img401.imageshack.us/img401/3963/vlcsnap2012012117h42m42.png[/img]

[img]http://img213.imageshack.us/img213/7186/vlcsnap2012012117h45m56.png[/img]

[img]http://img705.imageshack.us/img705/3121/vlcsnap2012012117h42m36.png[/img]
